<svg xmlns="http://www.w3.org/2000/svg" viewBox="0 0 200 186" role="img" aria-label="The Madison County Observer">
  <title>The Madison County Observer</title>

  <!-- Signal arcs, left -->
  <g fill="none" stroke="#c9972f" stroke-width="7" stroke-linecap="round">
    <path d="M18 78 A 42 42 0 0 1 55 46"/>
    <path d="M34 92 A 62 62 0 0 1 58 62"/>
  </g>

  <!-- Signal arcs, right -->
  <g fill="none" stroke="#c9972f" stroke-width="7" stroke-linecap="round">
    <path d="M182 78 A 42 42 0 0 0 145 46"/>
    <path d="M166 92 A 62 62 0 0 0 142 62"/>
  </g>

  <!-- Outer triangle -->
  <path d="M100 12 L176 116 L24 116 Z" fill="none" stroke="#294c3d" stroke-width="8" stroke-linejoin="round" stroke-linecap="round"/>

  <!-- Bottom shield: two corner triangles flanking a solid center wedge -->
  <path d="M36 116 L66 116 L51 150 Z" fill="none" stroke="#294c3d" stroke-width="6" stroke-linejoin="round"/>
  <path d="M164 116 L134 116 L149 150 Z" fill="none" stroke="#294c3d" stroke-width="6" stroke-linejoin="round"/>
  <path d="M78 108 C 86 122 114 122 122 108 L 100 152 Z" fill="#294c3d"/>

  <!-- Eye -->
  <path d="M54 100 C 71 80 129 80 146 100 C 129 120 71 120 54 100 Z" fill="#f4ebd8" stroke="#294c3d" stroke-width="6" stroke-linejoin="round"/>
  <circle cx="100" cy="100" r="22" fill="none" stroke="#294c3d" stroke-width="6.5"/>
</svg>
